<svg xmlns="http://www.w3.org/2000/svg" viewBox="0 0 48 48" width="144px" height="144px">
    <path fill="#6c19ff" d="M42,46H6V20c0-9.941,8.059-18,18-18h0c9.941,0,18,8.059,18,18V46z"/>
    <path fill="#3dd9eb" d="M6,12l8,3v11C14,26,6,22,6,12"/>
    <path fill="#3dd9eb" d="M42,12l-8,3v11C34,26,42,22,42,12"/>
    <rect width="14" height="9" x="17" y="37" fill="#00b3d7"/>
    <path fill="#3dd9eb" d="M37,20c0,10-5.82,23-13,23S11,30,11,20c0-7.18,5.82-13,13-13S37,12.82,37,20z"/>
    <path fill="#3dd9eb" d="M6,12l8,3v11C14,26,6,22,6,12 M42,12l-8,3v11C34,26,42,22,42,12"/>
    <path fill="#00b3d7" d="M14,15l-1.7-0.638C11.475,16.07,11,17.977,11,20c0,1.308,0.102,2.667,0.291,4.042 C12.777,25.38,14,26,14,26V15z"/>
    <path fill="#00b3d7" d="M34,26c0,0,1.223-0.62,2.709-1.958C36.898,22.667,37,21.308,37,20c0-2.023-0.475-3.93-1.3-5.638 L34,15V26z"/>
    <circle cx="18" cy="23" r="2" fill="#2100c4"/>
    <circle cx="30" cy="23" r="2" fill="#2100c4"/>
    <polygon fill="#2100c4" points="24,31 21,28 27,28"/>
    <path fill="#2100c4" d="M28,36.011c0,0-1.791,2-4,2s-4-2-4-2s1.791-2,4-2S28,36.011,28,36.011z"/>
    <path fill="#c2ffff" d="M22.164,7.145l1.839,11.861l1.839-11.861C25.238,7.06,24.627,7,24,7 C23.375,7,22.765,7.059,22.164,7.145z"/>
    <g>
        <path fill="#c2ffff" d="M31.653,9.508c-0.769-0.562-1.597-1.048-2.481-1.432C28.491,9.255,27,12.366,27,17 C27,17,29.164,11.249,31.653,9.508z"/>
        <path fill="#c2ffff" d="M21,17c0-4.634-1.491-7.745-2.171-8.925c-0.885,0.384-1.712,0.87-2.481,1.432 C18.836,11.249,21,17,21,17z"/>
    </g>
</svg>